PathFileType  4	(X/Y/Z) C:\Users\antoi\Documents\MyRepositories\mobilecap\ResultsAnalysis
DataRate	CameraRate	NumFrames	NumMarkers	Units	OrigDataRate	OrigDataStartFrame	OrigNumFrames
100.0	100.0	4	55	mm	100.0	440	502
Frame#	Time	r_knee			r_shank_antsup			r_ankle			r_calc			r_5meta			r_toe			L_knee			L_shank_antsup			L_ankle			L_calc			L_5meta			L_toe			r_mknee			r_mankle			L_mknee			L_mankle			r_sh2			r_sh3			r_sh4			L_sh2			L_sh3			r_thigh1			r_thigh2			r_thigh3			r_thigh4			r_thigh5			L_thigh1			L_thigh2			L_thigh3			L_thigh4			r.ASIS			r.PSIS			L.ASIS			L.PSIS			C7			R_Shoulder			L_Shoulder			R_Sternum			L_Sternum			R_humerus			R_elbow_med			R_elbow_lat			R_forearm			R_wrist_radius			R_wrist_ulna			L_humerus			L_elbow_med			L_elbow_lat			L_forearm			L_wrist_radius			L_wrist_ulna			R_HJC			L_HJC			R_HJC_reg			L_HJC_reg			
		X1	Y1	Z1	X2	Y2	Z2	X3	Y3	Z3	X4	Y4	Z4	X5	Y5	Z5	X6	Y6	Z6	X7	Y7	Z7	X8	Y8	Z8	X9	Y9	Z9	X10	Y10	Z10	X11	Y11	Z11	X12	Y12	Z12	X13	Y13	Z13	X14	Y14	Z14	X15	Y15	Z15	X16	Y16	Z16	X17	Y17	Z17	X18	Y18	Z18	X19	Y19	Z19	X20	Y20	Z20	X21	Y21	Z21	X22	Y22	Z22	X23	Y23	Z23	X24	Y24	Z24	X25	Y25	Z25	X26	Y26	Z26	X27	Y27	Z27	X28	Y28	Z28	X29	Y29	Z29	X30	Y30	Z30	X31	Y31	Z31	X32	Y32	Z32	X33	Y33	Z33	X34	Y34	Z34	X35	Y35	Z35	X36	Y36	Z36	X37	Y37	Z37	X38	Y38	Z38	X39	Y39	Z39	X40	Y40	Z40	X41	Y41	Z41	X42	Y42	Z42	X43	Y43	Z43	X44	Y44	Z44	X45	Y45	Z45	X46	Y46	Z46	X47	Y47	Z47	X48	Y48	Z48	X49	Y49	Z49	X50	Y50	Z50	X51	Y51	Z51	X52	Y52	Z52	X53	Y53	Z53	X54	Y54	Z54	X55	Y55	Z55	

440	4.39000000	-272.37189	541.88545	-447.10208	-247.84822	466.13350	-433.64606	-289.22773	102.04309	-442.90965	-349.72647	51.93875	-483.65275	-144.93299	38.27822	-410.48751	-113.48731	62.05742	-472.71263	-265.38910	541.40767	-768.71457	-239.17216	424.87202	-778.96195	-297.26396	99.05962	-758.61259	-364.35503	52.78078	-718.08410	-144.87803	33.57657	-792.20154	-119.75472	59.67280	-727.29275	-271.08886	535.64466	-570.58333	-263.61520	114.84040	-533.99443	-270.10920	543.21071	-641.65830	-270.50009	114.86920	-666.04107	-245.56429	353.74621	-421.92002	-321.55779	466.52955	-411.25542	-326.08101	350.34913	-407.87143	-326.24847	437.17557	-797.82667	-327.87666	316.76384	-796.58985	-192.07884	861.12905	-429.22550	-185.52503	749.34355	-441.22101	-237.53979	719.45296	-411.42846	-305.03661	849.24256	-423.95010	-290.97806	732.42759	-422.45933	-179.60004	864.88437	-786.45700	-179.67812	725.06394	-782.34663	-298.84388	859.62418	-802.55027	-288.03596	720.33156	-795.93961	-165.43718	1049.34958	-476.95079	-350.59820	1108.01533	-565.86089	-154.89617	1046.20572	-740.96076	-346.94445	1109.31662	-670.03233	-356.86980	1606.44681	-628.57440	-294.16952	1570.12264	-448.89082	-292.52061	1581.94424	-786.24503	-203.35721	1552.72733	-592.22430	-200.60581	1549.25492	-645.90741	-303.23923	1296.90719	-364.85892	-336.22723	1206.78849	-439.89520	-323.07274	1210.87473	-357.89457	-252.90225	1067.51373	-338.83503	-205.64017	962.17574	-345.46901	-248.76331	958.41078	-332.79337	-275.63073	1319.53928	-870.35536	-323.76875	1231.79090	-814.74042	-293.87556	1232.57961	-874.93340	-230.85170	1073.14592	-885.96120	-191.81967	981.14478	-871.06180	-226.71175	972.39927	-888.57628	-258.38534	980.01982	-490.03015	-246.50045	978.05474	-720.08299	-244.79903	977.22910	-518.24113	-238.68640	979.40616	-692.51811	
441	4.40000000	-272.34471	541.91416	-447.11321	-247.82982	466.04096	-433.66132	-289.24086	101.91512	-442.97268	-349.70870	51.93748	-483.63156	-144.95939	38.18747	-410.45714	-113.48477	61.96846	-472.64503	-265.36771	541.39427	-768.71116	-239.15872	424.86273	-778.96474	-297.26251	99.05554	-758.62022	-364.35919	52.68940	-717.99436	-144.87744	33.56500	-792.20592	-119.70904	59.63427	-727.21578	-271.09461	535.66011	-570.59587	-263.61269	114.83988	-533.99817	-270.08819	543.21998	-641.66987	-270.52312	114.87519	-666.11068	-245.53667	353.64227	-421.89215	-321.50538	466.45554	-411.23893	-326.07234	350.46307	-407.88813	-326.21728	437.18353	-797.84752	-327.88097	316.83092	-796.74068	-192.07919	861.16502	-429.25584	-185.60386	749.19571	-441.14132	-237.52734	719.35429	-411.40643	-305.00902	849.09759	-423.98569	-291.00349	732.25466	-422.50849	-179.52433	864.79437	-786.45394	-179.63113	725.05790	-782.38467	-298.78582	859.61173	-802.56922	-287.98847	720.33082	-795.95273	-165.35826	1049.29475	-476.96747	-350.53459	1107.93256	-565.78925	-154.83539	1046.19347	-740.95101	-346.88119	1109.17023	-669.94188	-356.72311	1606.36127	-628.48603	-294.07056	1570.06456	-448.87588	-292.41301	1581.96014	-786.28682	-203.28624	1552.62828	-592.16986	-200.52933	1549.26127	-645.93176	-303.19496	1296.82106	-364.89768	-336.26426	1206.82862	-439.91249	-323.04609	1210.73112	-357.95595	-252.89375	1067.39956	-338.83399	-205.68491	962.07648	-345.46469	-248.79060	958.24700	-332.81972	-275.54546	1319.55634	-870.35852	-323.71050	1231.77645	-814.75040	-293.79528	1232.57849	-874.97215	-230.81094	1073.13256	-885.97109	-191.80632	981.12452	-871.11969	-226.69391	972.38516	-888.58317	-258.25176	979.93256	-489.99977	-246.41776	977.99394	-720.05545	-244.72974	977.26681	-518.21093	-238.61713	979.33756	-692.47095	
442	4.41000000	-272.32699	541.92498	-447.11765	-247.76345	466.00957	-433.57587	-289.27603	101.74545	-442.98466	-349.69070	51.94792	-483.59705	-144.92885	38.11377	-410.41021	-113.47870	61.90624	-472.55177	-265.35541	541.44499	-768.74107	-239.15138	424.87837	-778.95991	-297.27155	99.10126	-758.60863	-364.34413	52.60404	-717.85568	-144.87406	33.59659	-792.19453	-119.73269	59.54901	-727.10561	-271.10235	535.66884	-570.60618	-263.60211	114.86522	-533.98896	-270.07225	543.21719	-641.68602	-270.51735	114.88573	-666.16003	-245.48680	353.51053	-421.81399	-321.49715	466.42158	-411.24216	-326.19892	350.54723	-408.06193	-326.20148	437.21106	-797.84337	-327.89328	316.92062	-796.72985	-192.05800	861.17293	-429.24761	-185.62209	749.12419	-441.10873	-237.53465	719.27365	-411.42671	-305.00313	849.01039	-423.98996	-290.99446	732.11136	-422.53213	-179.47289	864.73386	-786.44397	-179.59271	725.06897	-782.36336	-298.71766	859.63674	-802.56856	-287.95149	720.36177	-795.93810	-165.29198	1049.23106	-476.98082	-350.47155	1107.84113	-565.71624	-154.77292	1046.21231	-740.93850	-346.80307	1109.07809	-669.87661	-356.57358	1606.32156	-628.38652	-293.96883	1569.97639	-448.83471	-292.32174	1581.97403	-786.27164	-203.22681	1552.55061	-592.10369	-200.43984	1549.25965	-645.90385	-303.13764	1296.71463	-364.90709	-336.23148	1206.85169	-439.88847	-323.03122	1210.55111	-358.00089	-252.88398	1067.30602	-338.81849	-205.73350	961.92363	-345.49204	-248.85310	958.07113	-332.87093	-275.46855	1319.58560	-870.35062	-323.64412	1231.77897	-814.76263	-293.72274	1232.61700	-874.99452	-230.75776	1073.15366	-886.00144	-191.79787	981.14044	-871.14085	-226.67516	972.41689	-888.58489	-258.13658	979.83756	-489.99410	-246.32978	977.97116	-720.05177	-244.65878	977.23924	-518.23107	-238.52205	979.30841	-692.47249	
443	4.42000000	-272.31111	541.91628	-447.12249	-247.74664	465.99745	-433.51446	-289.30137	101.62240	-442.91463	-349.68304	51.97575	-483.56764	-144.87601	38.01903	-410.36797	-113.47280	61.90102	-472.46002	-265.35045	541.51316	-768.73763	-239.14804	424.92587	-778.94352	-297.28760	99.18330	-758.58033	-364.37754	52.53720	-717.69222	-144.85940	33.67100	-792.18879	-119.80711	59.49097	-727.04587	-271.10925	535.65664	-570.61317	-263.58985	114.91614	-533.97199	-270.05975	543.19780	-641.70393	-270.51546	114.88782	-666.15096	-245.43264	353.43137	-421.74713	-321.50038	466.32072	-411.24383	-326.26239	350.55680	-408.19164	-326.20041	437.25286	-797.85464	-327.93227	316.94501	-796.67356	-192.02610	861.14371	-429.23912	-185.59366	749.10707	-441.10006	-237.54021	719.21181	-411.47776	-304.98736	848.98576	-423.96150	-290.96533	732.04769	-422.55696	-179.37360	864.77253	-786.36265	-179.54710	725.08915	-782.30556	-298.65850	859.69885	-802.55392	-287.92101	720.41683	-795.90719	-165.23694	1049.17233	-476.97435	-350.40339	1107.78134	-565.67305	-154.68525	1046.25109	-740.93358	-346.71101	1109.04568	-669.83843	-356.48027	1606.32982	-628.38895	-293.86357	1569.88705	-448.77000	-292.23368	1582.01653	-786.22577	-203.17343	1552.53769	-592.05835	-200.33436	1549.24355	-645.85791	-303.07805	1296.61043	-364.90442	-336.17428	1206.73944	-439.96017	-323.01554	1210.42956	-358.01419	-252.88935	1067.24755	-338.81569	-205.77149	961.75669	-345.55695	-248.91687	957.96251	-332.91684	-275.41019	1319.62707	-870.31681	-323.56865	1231.81187	-814.76266	-293.65688	1232.68860	-874.99783	-230.70511	1073.20409	-886.04116	-191.78009	981.18669	-871.11285	-226.65410	972.48935	-888.62657	-258.04904	979.76228	-490.00817	-246.23170	977.98480	-720.06601	-244.59497	977.19357	-518.26220	-238.41860	979.30846	-692.50282	
